<mxfile host="app.diagrams.net" modified="2022-09-29T01:56:53.480Z" agent="5.0 (Windows NT 10.0; Win64; x64) AppleWebKit/537.36 (KHTML, like Gecko) Chrome/105.0.0.0 Safari/537.36" etag="wNzkQW6JmC1Ln1XPE5fV" version="20.0.4" type="github">
  <diagram id="MLmHu1FTsnMF05LZP3E4" name="Page-1">
    <mxGraphModel dx="2934" dy="1011" grid="1" gridSize="10" guides="1" tooltips="1" connect="1" arrows="1" fold="1" page="1" pageScale="1" pageWidth="1100" pageHeight="1700" math="0" shadow="0">
      <root>
        <mxCell id="0" />
        <mxCell id="1" parent="0" />
        <mxCell id="g76XsvOcrzSk1p-11QXU-3" value="" style="rounded=1;whiteSpace=wrap;html=1;strokeColor=#FF3333;" parent="1" vertex="1">
          <mxGeometry x="210" y="340" width="690" height="330" as="geometry" />
        </mxCell>
        <mxCell id="BwfMt-pczbsLhnT2GrHr-9" value="" style="group" parent="1" vertex="1" connectable="0">
          <mxGeometry x="210" y="400" width="238" height="176.25" as="geometry" />
        </mxCell>
        <mxCell id="BwfMt-pczbsLhnT2GrHr-3" value="" style="sketch=0;pointerEvents=1;shadow=0;dashed=0;html=1;strokeColor=none;fillColor=#505050;labelPosition=center;verticalLabelPosition=bottom;verticalAlign=top;outlineConnect=0;align=center;shape=mxgraph.office.communications.skype_for_business_web_app_client;" parent="BwfMt-pczbsLhnT2GrHr-9" vertex="1">
          <mxGeometry y="31.582369942196532" width="90" height="48.90173410404624" as="geometry" />
        </mxCell>
        <mxCell id="BwfMt-pczbsLhnT2GrHr-5" value="" style="whiteSpace=wrap;html=1;aspect=fixed;strokeColor=none;" parent="BwfMt-pczbsLhnT2GrHr-9" vertex="1">
          <mxGeometry x="60" width="57.05202312138728" height="57.05202312138728" as="geometry" />
        </mxCell>
        <mxCell id="BwfMt-pczbsLhnT2GrHr-6" value="" style="shape=image;html=1;verticalAlign=top;verticalLabelPosition=bottom;labelBackgroundColor=#ffffff;imageAspect=0;aspect=fixed;image=https://cdn1.iconfinder.com/data/icons/ionicons-fill-vol-2/512/logo-react-128.png" parent="BwfMt-pczbsLhnT2GrHr-9" vertex="1">
          <mxGeometry x="62" y="17.115606936416185" width="22.820809248554912" height="22.820809248554912" as="geometry" />
        </mxCell>
        <mxCell id="BwfMt-pczbsLhnT2GrHr-15" value="" style="group" parent="1" vertex="1" connectable="0">
          <mxGeometry x="60" y="400" width="155" height="68.75" as="geometry" />
        </mxCell>
        <mxCell id="BwfMt-pczbsLhnT2GrHr-10" value="" style="verticalLabelPosition=bottom;html=1;verticalAlign=top;align=center;strokeColor=none;fillColor=#00BEF2;shape=mxgraph.azure.user;" parent="BwfMt-pczbsLhnT2GrHr-15" vertex="1">
          <mxGeometry x="20" y="15.75" width="30" height="40" as="geometry" />
        </mxCell>
        <mxCell id="BwfMt-pczbsLhnT2GrHr-13" value="" style="verticalLabelPosition=bottom;html=1;verticalAlign=top;align=center;strokeColor=none;fillColor=#00BEF2;shape=mxgraph.azure.user;" parent="BwfMt-pczbsLhnT2GrHr-15" vertex="1">
          <mxGeometry x="40" y="28.75" width="30" height="40" as="geometry" />
        </mxCell>
        <mxCell id="BwfMt-pczbsLhnT2GrHr-14" value="" style="verticalLabelPosition=bottom;html=1;verticalAlign=top;align=center;strokeColor=none;fillColor=#00BEF2;shape=mxgraph.azure.user;" parent="BwfMt-pczbsLhnT2GrHr-15" vertex="1">
          <mxGeometry width="30" height="40" as="geometry" />
        </mxCell>
        <mxCell id="BwfMt-pczbsLhnT2GrHr-68" value="&lt;font color=&quot;#000000&quot;&gt;1. Test Request&lt;/font&gt;" style="text;html=1;align=center;verticalAlign=middle;resizable=0;points=[];autosize=1;strokeColor=none;fillColor=none;fontColor=#9999FF;" parent="BwfMt-pczbsLhnT2GrHr-15" vertex="1">
          <mxGeometry x="55" y="20" width="100" height="20" as="geometry" />
        </mxCell>
        <mxCell id="BwfMt-pczbsLhnT2GrHr-23" value="" style="edgeStyle=orthogonalEdgeStyle;rounded=0;orthogonalLoop=1;jettySize=auto;html=1;fontColor=#BABABA;" parent="1" source="BwfMt-pczbsLhnT2GrHr-13" edge="1">
          <mxGeometry relative="1" as="geometry">
            <mxPoint x="195" y="448.75" as="targetPoint" />
          </mxGeometry>
        </mxCell>
        <mxCell id="BwfMt-pczbsLhnT2GrHr-11" value="2. Authentication/Authorization" style="verticalLabelPosition=bottom;html=1;verticalAlign=top;align=center;strokeColor=none;fillColor=#00BEF2;shape=mxgraph.azure.azure_active_directory;fontSize=12;labelPosition=center;" parent="1" vertex="1">
          <mxGeometry x="200" y="250" width="80" height="67.5" as="geometry" />
        </mxCell>
        <mxCell id="BwfMt-pczbsLhnT2GrHr-54" style="edgeStyle=orthogonalEdgeStyle;rounded=0;orthogonalLoop=1;jettySize=auto;html=1;fontColor=#BABABA;entryX=0.226;entryY=0.968;entryDx=0;entryDy=0;entryPerimeter=0;" parent="1" source="BwfMt-pczbsLhnT2GrHr-25" target="BwfMt-pczbsLhnT2GrHr-30" edge="1">
          <mxGeometry relative="1" as="geometry">
            <mxPoint x="490" y="340" as="targetPoint" />
          </mxGeometry>
        </mxCell>
        <mxCell id="BwfMt-pczbsLhnT2GrHr-66" style="edgeStyle=orthogonalEdgeStyle;rounded=0;orthogonalLoop=1;jettySize=auto;html=1;fontColor=#BABABA;entryX=0.5;entryY=0;entryDx=0;entryDy=0;" parent="1" source="BwfMt-pczbsLhnT2GrHr-25" target="BwfMt-pczbsLhnT2GrHr-43" edge="1">
          <mxGeometry relative="1" as="geometry">
            <mxPoint x="430" y="550" as="targetPoint" />
          </mxGeometry>
        </mxCell>
        <mxCell id="BwfMt-pczbsLhnT2GrHr-25" value="" style="shape=image;verticalLabelPosition=bottom;labelBackgroundColor=default;verticalAlign=top;aspect=fixed;imageAspect=0;image=https://cdn-icons-png.flaticon.com/512/2165/2165004.png;" parent="1" vertex="1">
          <mxGeometry x="410" y="439.94" width="40" height="40" as="geometry" />
        </mxCell>
        <mxCell id="BwfMt-pczbsLhnT2GrHr-69" style="edgeStyle=orthogonalEdgeStyle;rounded=0;orthogonalLoop=1;jettySize=auto;html=1;fontSize=12;fontColor=#000000;exitX=0.286;exitY=0.014;exitDx=0;exitDy=0;exitPerimeter=0;" parent="1" source="BwfMt-pczbsLhnT2GrHr-36" target="BwfMt-pczbsLhnT2GrHr-30" edge="1">
          <mxGeometry relative="1" as="geometry">
            <mxPoint x="790" y="480" as="sourcePoint" />
            <Array as="points">
              <mxPoint x="790" y="460" />
              <mxPoint x="580" y="460" />
            </Array>
          </mxGeometry>
        </mxCell>
        <mxCell id="BwfMt-pczbsLhnT2GrHr-30" value="" style="aspect=fixed;html=1;points=[];align=center;image;fontSize=12;image=img/lib/azure2/databases/SQL_Server.svg;fontColor=#BABABA;strokeColor=default;strokeWidth=0.5;" parent="1" vertex="1">
          <mxGeometry x="530" y="350" width="68" height="68" as="geometry" />
        </mxCell>
        <mxCell id="BwfMt-pczbsLhnT2GrHr-37" value="" style="aspect=fixed;html=1;points=[];align=center;image;fontSize=12;image=img/lib/azure2/security/Key_Vaults.svg;fontColor=#BABABA;strokeColor=default;strokeWidth=0.5;" parent="1" vertex="1">
          <mxGeometry x="900" y="150" width="68" height="68" as="geometry" />
        </mxCell>
        <mxCell id="BwfMt-pczbsLhnT2GrHr-85" style="edgeStyle=orthogonalEdgeStyle;rounded=0;orthogonalLoop=1;jettySize=auto;html=1;fontSize=12;fontColor=#000000;entryX=0.603;entryY=0.962;entryDx=0;entryDy=0;entryPerimeter=0;" parent="1" source="BwfMt-pczbsLhnT2GrHr-41" target="BwfMt-pczbsLhnT2GrHr-84" edge="1">
          <mxGeometry relative="1" as="geometry">
            <mxPoint x="780" y="240" as="targetPoint" />
          </mxGeometry>
        </mxCell>
        <mxCell id="BwfMt-pczbsLhnT2GrHr-41" value="" style="aspect=fixed;html=1;points=[];align=center;image;fontSize=12;image=img/lib/azure2/integration/Logic_Apps.svg;fontColor=#BABABA;strokeColor=default;strokeWidth=0.5;" parent="1" vertex="1">
          <mxGeometry x="767" y="265.5" width="67" height="52" as="geometry" />
        </mxCell>
        <mxCell id="BwfMt-pczbsLhnT2GrHr-43" value="" style="shape=image;verticalLabelPosition=bottom;labelBackgroundColor=default;verticalAlign=top;aspect=fixed;imageAspect=0;image=https://squiglit.com/wp-content/uploads/2021/04/logo-ms-graph-api.png;" parent="1" vertex="1">
          <mxGeometry x="380" y="710" width="100" height="60" as="geometry" />
        </mxCell>
        <mxCell id="BwfMt-pczbsLhnT2GrHr-53" value="" style="group" parent="1" vertex="1" connectable="0">
          <mxGeometry x="610" y="480" width="278" height="143" as="geometry" />
        </mxCell>
        <mxCell id="BwfMt-pczbsLhnT2GrHr-32" value="" style="verticalLabelPosition=bottom;html=1;verticalAlign=top;align=center;strokeColor=none;fillColor=#00BEF2;shape=mxgraph.azure.storage_queue;fontColor=#BABABA;" parent="BwfMt-pczbsLhnT2GrHr-53" vertex="1">
          <mxGeometry width="38" height="35.01" as="geometry" />
        </mxCell>
        <mxCell id="BwfMt-pczbsLhnT2GrHr-34" value="" style="verticalLabelPosition=bottom;html=1;verticalAlign=top;align=center;strokeColor=none;fillColor=#00BEF2;shape=mxgraph.azure.storage_queue;fontColor=#BABABA;" parent="BwfMt-pczbsLhnT2GrHr-53" vertex="1">
          <mxGeometry y="57.440000000000055" width="38" height="33.12" as="geometry" />
        </mxCell>
        <mxCell id="BwfMt-pczbsLhnT2GrHr-35" value="" style="verticalLabelPosition=bottom;html=1;verticalAlign=top;align=center;strokeColor=none;fillColor=#00BEF2;shape=mxgraph.azure.storage_queue;fontColor=#BABABA;" parent="BwfMt-pczbsLhnT2GrHr-53" vertex="1">
          <mxGeometry y="104.88" width="38" height="38.12" as="geometry" />
        </mxCell>
        <mxCell id="BwfMt-pczbsLhnT2GrHr-36" value="" style="aspect=fixed;html=1;points=[];align=center;image;fontSize=12;image=img/lib/azure2/compute/VM_Scale_Sets.svg;fontColor=#BABABA;strokeColor=default;strokeWidth=0.5;" parent="BwfMt-pczbsLhnT2GrHr-53" vertex="1">
          <mxGeometry x="140" y="5" width="138" height="138" as="geometry" />
        </mxCell>
        <mxCell id="BwfMt-pczbsLhnT2GrHr-50" value="" style="edgeStyle=orthogonalEdgeStyle;rounded=0;orthogonalLoop=1;jettySize=auto;html=1;fontColor=#BABABA;" parent="BwfMt-pczbsLhnT2GrHr-53" source="BwfMt-pczbsLhnT2GrHr-36" target="BwfMt-pczbsLhnT2GrHr-32" edge="1">
          <mxGeometry relative="1" as="geometry">
            <Array as="points">
              <mxPoint x="89" y="45" />
              <mxPoint x="89" y="18" />
            </Array>
          </mxGeometry>
        </mxCell>
        <mxCell id="BwfMt-pczbsLhnT2GrHr-76" value="6. Monitor request" style="edgeLabel;html=1;align=center;verticalAlign=middle;resizable=0;points=[];fontSize=12;fontColor=#000000;" parent="BwfMt-pczbsLhnT2GrHr-50" vertex="1" connectable="0">
          <mxGeometry x="-0.3581" y="-4" relative="1" as="geometry">
            <mxPoint x="-19" y="2" as="offset" />
          </mxGeometry>
        </mxCell>
        <mxCell id="BwfMt-pczbsLhnT2GrHr-51" value="" style="edgeStyle=orthogonalEdgeStyle;rounded=0;orthogonalLoop=1;jettySize=auto;html=1;fontColor=#BABABA;" parent="BwfMt-pczbsLhnT2GrHr-53" source="BwfMt-pczbsLhnT2GrHr-36" target="BwfMt-pczbsLhnT2GrHr-34" edge="1">
          <mxGeometry relative="1" as="geometry" />
        </mxCell>
        <mxCell id="BwfMt-pczbsLhnT2GrHr-52" value="" style="edgeStyle=orthogonalEdgeStyle;rounded=0;orthogonalLoop=1;jettySize=auto;html=1;fontColor=#BABABA;exitX=-0.03;exitY=0.703;exitDx=0;exitDy=0;exitPerimeter=0;" parent="BwfMt-pczbsLhnT2GrHr-53" source="BwfMt-pczbsLhnT2GrHr-36" target="BwfMt-pczbsLhnT2GrHr-35" edge="1">
          <mxGeometry relative="1" as="geometry">
            <mxPoint x="110" y="105" as="sourcePoint" />
          </mxGeometry>
        </mxCell>
        <mxCell id="BwfMt-pczbsLhnT2GrHr-46" value="" style="shape=image;verticalLabelPosition=bottom;labelBackgroundColor=default;verticalAlign=top;aspect=fixed;imageAspect=0;image=https://betanews.com/wp-content/uploads/2014/06/ServiceTray200-175.png;" parent="BwfMt-pczbsLhnT2GrHr-53" vertex="1">
          <mxGeometry x="199.36" y="9.07000000000005" width="19.28" height="16.87" as="geometry" />
        </mxCell>
        <mxCell id="BwfMt-pczbsLhnT2GrHr-47" value="" style="shape=image;verticalLabelPosition=bottom;labelBackgroundColor=default;verticalAlign=top;aspect=fixed;imageAspect=0;image=https://betanews.com/wp-content/uploads/2014/06/ServiceTray200-175.png;" parent="BwfMt-pczbsLhnT2GrHr-53" vertex="1">
          <mxGeometry x="230.72000000000003" y="43.129999999999995" width="19.28" height="16.87" as="geometry" />
        </mxCell>
        <mxCell id="BwfMt-pczbsLhnT2GrHr-48" value="" style="shape=image;verticalLabelPosition=bottom;labelBackgroundColor=default;verticalAlign=top;aspect=fixed;imageAspect=0;image=https://betanews.com/wp-content/uploads/2014/06/ServiceTray200-175.png;" parent="BwfMt-pczbsLhnT2GrHr-53" vertex="1">
          <mxGeometry x="255.72000000000003" y="71.25" width="19.28" height="16.87" as="geometry" />
        </mxCell>
        <mxCell id="BwfMt-pczbsLhnT2GrHr-75" value="" style="sketch=0;aspect=fixed;pointerEvents=1;shadow=0;dashed=0;html=1;strokeColor=none;labelPosition=center;verticalLabelPosition=bottom;verticalAlign=top;align=center;fillColor=#00188D;shape=mxgraph.mscae.enterprise.monitor_running_apps;fontSize=12;fontColor=#000000;" parent="BwfMt-pczbsLhnT2GrHr-53" vertex="1">
          <mxGeometry x="140" y="11.610000000000014" width="30" height="23.4" as="geometry" />
        </mxCell>
        <mxCell id="BwfMt-pczbsLhnT2GrHr-77" value="6. Monitor request" style="edgeLabel;html=1;align=center;verticalAlign=middle;resizable=0;points=[];fontSize=12;fontColor=#000000;" parent="BwfMt-pczbsLhnT2GrHr-53" vertex="1" connectable="0">
          <mxGeometry x="80" y="88.12" as="geometry" />
        </mxCell>
        <mxCell id="BwfMt-pczbsLhnT2GrHr-64" value="3.Request Sent&lt;br&gt;" style="edgeStyle=orthogonalEdgeStyle;rounded=0;orthogonalLoop=1;jettySize=auto;html=1;fontColor=#000000;" parent="1" source="BwfMt-pczbsLhnT2GrHr-6" target="BwfMt-pczbsLhnT2GrHr-25" edge="1">
          <mxGeometry relative="1" as="geometry" />
        </mxCell>
        <mxCell id="BwfMt-pczbsLhnT2GrHr-65" style="edgeStyle=orthogonalEdgeStyle;rounded=0;orthogonalLoop=1;jettySize=auto;html=1;entryX=0.526;entryY=1.003;entryDx=0;entryDy=0;entryPerimeter=0;fontColor=#BABABA;" parent="1" target="BwfMt-pczbsLhnT2GrHr-37" edge="1">
          <mxGeometry relative="1" as="geometry">
            <mxPoint x="860" y="500" as="sourcePoint" />
            <Array as="points">
              <mxPoint x="936" y="500" />
            </Array>
          </mxGeometry>
        </mxCell>
        <mxCell id="BwfMt-pczbsLhnT2GrHr-79" value="Get passwords from Key vault" style="edgeLabel;html=1;align=center;verticalAlign=middle;resizable=0;points=[];fontSize=12;fontColor=#000000;" parent="BwfMt-pczbsLhnT2GrHr-65" vertex="1" connectable="0">
          <mxGeometry x="-0.0275" relative="1" as="geometry">
            <mxPoint as="offset" />
          </mxGeometry>
        </mxCell>
        <mxCell id="BwfMt-pczbsLhnT2GrHr-67" style="edgeStyle=orthogonalEdgeStyle;rounded=0;orthogonalLoop=1;jettySize=auto;html=1;fontColor=#BABABA;" parent="1" source="BwfMt-pczbsLhnT2GrHr-36" target="BwfMt-pczbsLhnT2GrHr-41" edge="1">
          <mxGeometry relative="1" as="geometry">
            <mxPoint x="819" y="370" as="targetPoint" />
          </mxGeometry>
        </mxCell>
        <mxCell id="BwfMt-pczbsLhnT2GrHr-80" value="9. Trigger Logic App for Report" style="edgeLabel;html=1;align=center;verticalAlign=middle;resizable=0;points=[];fontSize=12;fontColor=#000000;" parent="BwfMt-pczbsLhnT2GrHr-67" vertex="1" connectable="0">
          <mxGeometry x="0.2313" y="-2" relative="1" as="geometry">
            <mxPoint as="offset" />
          </mxGeometry>
        </mxCell>
        <mxCell id="BwfMt-pczbsLhnT2GrHr-70" value="5. Check/Upload App In teams catalog" style="text;html=1;align=center;verticalAlign=middle;resizable=0;points=[];autosize=1;strokeColor=none;fillColor=none;fontSize=12;fontColor=#000000;" parent="1" vertex="1">
          <mxGeometry x="330" y="500" width="220" height="20" as="geometry" />
        </mxCell>
        <mxCell id="BwfMt-pczbsLhnT2GrHr-71" value="4. Submit Request" style="text;html=1;align=center;verticalAlign=middle;resizable=0;points=[];autosize=1;strokeColor=none;fillColor=none;fontSize=12;fontColor=#000000;" parent="1" vertex="1">
          <mxGeometry x="450" y="430" width="110" height="20" as="geometry" />
        </mxCell>
        <mxCell id="BwfMt-pczbsLhnT2GrHr-72" value="5. Master Node Monitors Request&lt;br&gt;Broadcast request to all queues" style="text;html=1;align=center;verticalAlign=middle;resizable=0;points=[];autosize=1;strokeColor=none;fillColor=none;fontSize=12;fontColor=#000000;" parent="1" vertex="1">
          <mxGeometry x="898.5" y="460" width="190" height="30" as="geometry" />
        </mxCell>
        <mxCell id="BwfMt-pczbsLhnT2GrHr-78" value="6. Monitor request" style="edgeLabel;html=1;align=center;verticalAlign=middle;resizable=0;points=[];fontSize=12;fontColor=#000000;" parent="1" vertex="1" connectable="0">
          <mxGeometry x="690" y="630" as="geometry" />
        </mxCell>
        <mxCell id="BwfMt-pczbsLhnT2GrHr-84" value="" style="shape=image;html=1;verticalAlign=top;verticalLabelPosition=bottom;labelBackgroundColor=#ffffff;imageAspect=0;aspect=fixed;image=https://cdn0.iconfinder.com/data/icons/logos-microsoft-office-365/128/Microsoft_Office-07-128.png;fontSize=12;fontColor=#000000;strokeColor=default;strokeWidth=0.5;" parent="1" vertex="1">
          <mxGeometry x="740" y="130" width="78" height="78" as="geometry" />
        </mxCell>
        <mxCell id="BwfMt-pczbsLhnT2GrHr-81" value="" style="strokeColor=#dddddd;shadow=1;strokeWidth=1;rounded=1;absoluteArcSize=1;arcSize=2;labelPosition=center;verticalLabelPosition=bottom;align=center;verticalAlign=top;spacingLeft=0;fontColor=#000000;fontSize=12;whiteSpace=wrap;spacingBottom=2;" parent="1" vertex="1">
          <mxGeometry x="747" y="139.5" width="20" height="48.5" as="geometry" />
        </mxCell>
        <mxCell id="BwfMt-pczbsLhnT2GrHr-82" value="" style="sketch=0;dashed=0;connectable=0;html=1;fillColor=#757575;strokeColor=none;shape=mxgraph.gcp2.report;part=1;fontSize=12;fontColor=#000000;labelPosition=center;verticalLabelPosition=bottom;align=center;verticalAlign=top;" parent="BwfMt-pczbsLhnT2GrHr-81" vertex="1">
          <mxGeometry x="0.5" width="50" height="50" relative="1" as="geometry">
            <mxPoint x="-25" y="10" as="offset" />
          </mxGeometry>
        </mxCell>
        <mxCell id="BwfMt-pczbsLhnT2GrHr-86" value="10. Report" style="text;html=1;align=center;verticalAlign=middle;resizable=0;points=[];autosize=1;strokeColor=none;fillColor=none;fontSize=12;fontColor=#000000;" parent="1" vertex="1">
          <mxGeometry x="795" y="230" width="70" height="20" as="geometry" />
        </mxCell>
        <mxCell id="BwfMt-pczbsLhnT2GrHr-87" value="" style="sketch=0;aspect=fixed;html=1;points=[];align=center;image;fontSize=12;image=img/lib/mscae/Azure_Test_Plans.svg;fontColor=#000000;strokeColor=default;strokeWidth=0.5;" parent="1" vertex="1">
          <mxGeometry x="1000" y="550" width="27" height="30" as="geometry" />
        </mxCell>
        <mxCell id="BwfMt-pczbsLhnT2GrHr-88" value="" style="sketch=0;aspect=fixed;html=1;points=[];align=center;image;fontSize=12;image=img/lib/mscae/Azure_Test_Plans.svg;fontColor=#000000;strokeColor=default;strokeWidth=0.5;" parent="1" vertex="1">
          <mxGeometry x="990" y="536.25" width="27" height="30" as="geometry" />
        </mxCell>
        <mxCell id="BwfMt-pczbsLhnT2GrHr-95" style="edgeStyle=orthogonalEdgeStyle;rounded=0;orthogonalLoop=1;jettySize=auto;html=1;fontSize=12;fontColor=#000000;" parent="1" source="BwfMt-pczbsLhnT2GrHr-89" target="BwfMt-pczbsLhnT2GrHr-97" edge="1">
          <mxGeometry relative="1" as="geometry">
            <mxPoint x="993.5" y="630" as="targetPoint" />
          </mxGeometry>
        </mxCell>
        <mxCell id="BwfMt-pczbsLhnT2GrHr-96" value="8. Telemetry sent to Kusto" style="edgeLabel;html=1;align=center;verticalAlign=middle;resizable=0;points=[];fontSize=12;fontColor=#000000;" parent="BwfMt-pczbsLhnT2GrHr-95" vertex="1" connectable="0">
          <mxGeometry x="-0.2692" y="7" relative="1" as="geometry">
            <mxPoint x="-20" y="26" as="offset" />
          </mxGeometry>
        </mxCell>
        <mxCell id="BwfMt-pczbsLhnT2GrHr-89" value="" style="sketch=0;aspect=fixed;html=1;points=[];align=center;image;fontSize=12;image=img/lib/mscae/Azure_Test_Plans.svg;fontColor=#000000;strokeColor=default;strokeWidth=0.5;" parent="1" vertex="1">
          <mxGeometry x="1010" y="560" width="27" height="30" as="geometry" />
        </mxCell>
        <mxCell id="BwfMt-pczbsLhnT2GrHr-90" style="edgeStyle=orthogonalEdgeStyle;rounded=0;orthogonalLoop=1;jettySize=auto;html=1;fontSize=12;fontColor=#000000;" parent="1" source="BwfMt-pczbsLhnT2GrHr-48" edge="1">
          <mxGeometry relative="1" as="geometry">
            <mxPoint x="980" y="559.685" as="targetPoint" />
          </mxGeometry>
        </mxCell>
        <mxCell id="BwfMt-pczbsLhnT2GrHr-91" value="7. Execute Tests" style="text;html=1;align=center;verticalAlign=middle;resizable=0;points=[];autosize=1;strokeColor=none;fillColor=none;fontSize=12;fontColor=#000000;" parent="1" vertex="1">
          <mxGeometry x="880" y="540" width="100" height="20" as="geometry" />
        </mxCell>
        <mxCell id="BwfMt-pczbsLhnT2GrHr-97" value="" style="shape=image;verticalLabelPosition=bottom;labelBackgroundColor=default;verticalAlign=top;aspect=fixed;imageAspect=0;image=https://procsi.blob.core.windows.net/blog-images/kusto-KustoIcon.png;" parent="1" vertex="1">
          <mxGeometry x="965" y="680" width="97" height="95.47" as="geometry" />
        </mxCell>
        <mxCell id="JJFjYeF8QexpbJHXPTYQ-60" value="&lt;b&gt;Apps Perf Gate v1&lt;/b&gt;" style="text;html=1;align=center;verticalAlign=middle;resizable=0;points=[];autosize=1;strokeColor=none;fillColor=none;" vertex="1" parent="1">
          <mxGeometry x="490" y="60" width="130" height="30" as="geometry" />
        </mxCell>
      </root>
    </mxGraphModel>
  </diagram>
</mxfile>
